<?xml version="1.0" encoding="UTF-8" standalone="no"?>
<svg
   xmlns:dc="http://purl.org/dc/elements/1.1/"
   xmlns:cc="http://creativecommons.org/ns#"
   xmlns:rdf="http://www.w3.org/1999/02/22-rdf-syntax-ns#"
   xmlns:svg="http://www.w3.org/2000/svg"
   xmlns="http://www.w3.org/2000/svg"
   xmlns:xlink="http://www.w3.org/1999/xlink"
   xmlns:sodipodi="http://sodipodi.sourceforge.net/DTD/sodipodi-0.dtd"
   xmlns:inkscape="http://www.inkscape.org/namespaces/inkscape"
   viewBox="0 0 64 64"
   version="1.1"
   id="svg12"
   sodipodi:docname="folder-KDE.svg"
   inkscape:version="1.0.1 (3bc2e813f5, 2020-09-07)">
  <metadata
     id="metadata16">
    <rdf:RDF>
      <cc:Work
         rdf:about="">
        <dc:format>image/svg+xml</dc:format>
        <dc:type
           rdf:resource="http://purl.org/dc/dcmitype/StillImage" />
      </cc:Work>
    </rdf:RDF>
  </metadata>
  <sodipodi:namedview
     pagecolor="#ffffff"
     bordercolor="#666666"
     borderopacity="1"
     objecttolerance="10"
     gridtolerance="10"
     guidetolerance="10"
     inkscape:pageopacity="0"
     inkscape:pageshadow="2"
     inkscape:window-width="1920"
     inkscape:window-height="1016"
     id="namedview14"
     showgrid="false"
     inkscape:zoom="3.6875"
     inkscape:cx="-65.355932"
     inkscape:cy="32"
     inkscape:window-x="0"
     inkscape:window-y="0"
     inkscape:window-maximized="1"
     inkscape:current-layer="svg12"
     inkscape:document-rotation="0" />
  <defs
     id="defs3051">
    <linearGradient
       inkscape:collect="always"
       id="linearGradient835">
      <stop
         style="stop-color:#3daee9;stop-opacity:1"
         offset="0"
         id="stop831" />
      <stop
         id="stop824"
         offset="0.50968522"
         style="stop-color:#5599ff;stop-opacity:1" />
      <stop
         style="stop-color:#188bc4;stop-opacity:1"
         offset="1"
         id="stop833" />
    </linearGradient>
    <linearGradient
       inkscape:collect="always"
       id="linearGradient827">
      <stop
         style="stop-color:#188bc4;stop-opacity:1"
         offset="0"
         id="stop823" />
      <stop
         id="stop826"
         offset="0.50467563"
         style="stop-color:#5599ff;stop-opacity:1" />
      <stop
         style="stop-color:#3daee9;stop-opacity:1"
         offset="1"
         id="stop825" />
    </linearGradient>
    <style
       type="text/css"
       id="current-color-scheme">
      .ColorScheme-Text {
        color:#31363b;
      }
      .ColorScheme-Background {
        color:#eff0f1;
      }
      .ColorScheme-Highlight {
        color:#3daee9;
      }
      .ColorScheme-ViewText {
        color:#31363b;
      }
      .ColorScheme-ViewBackground {
        color:#fcfcfc;
      }
      .ColorScheme-ViewHover {
        color:#93cee9;
      }
      .ColorScheme-ViewFocus{
        color:#3daee9;
      }
      .ColorScheme-ButtonText {
        color:#31363b;
      }
      .ColorScheme-ButtonBackground {
        color:#eff0f1;
      }
      .ColorScheme-ButtonHover {
        color:#93cee9;
      }
      .ColorScheme-ButtonFocus{
        color:#3daee9;
      }
      </style>
    <linearGradient
       inkscape:collect="always"
       xlink:href="#linearGradient835"
       id="linearGradient837"
       x1="4"
       y1="13"
       x2="60"
       y2="13"
       gradientUnits="userSpaceOnUse" />
    <linearGradient
       inkscape:collect="always"
       xlink:href="#linearGradient827"
       id="linearGradient826"
       x1="3"
       y1="32"
       x2="61"
       y2="32"
       gradientUnits="userSpaceOnUse" />
  </defs>
  <path
     style="fill:url(#linearGradient826);fill-opacity:1;stroke:none"
     d="M 4 6 L 4 11 L 4 20 L 3 20 L 3 21 L 3.0019531 21 C 3.0019031 21.004 3 21.008019 3 21.011719 L 3 57 L 3 58 L 4 58 L 60 58 L 61 58 L 61 57 L 61 21.011719 L 61 21 L 61 16 L 60 16 L 60 11.009766 C 60 11.006766 59.998047 11.004 59.998047 11 L 60 11 L 60 10 L 32 10 L 28 6 L 4 6 z "
     class="ColorScheme-Highlight"
     id="path4" />
  <path
     style="fill-opacity:1;fill-rule:evenodd;fill:url(#linearGradient837)"
     d="M 4 6 L 4 11 L 4 20 L 22 20 L 26 16 L 60 16 L 60 11.009766 C 60 11.006766 59.998047 11.004 59.998047 11 L 60 11 L 60 10 L 32 10 L 28 6 L 4 6 z "
     id="path6" />
  <path
     style="fill:#ffffff;fill-opacity:0.2;fill-rule:evenodd"
     d="M 28 6 L 31 11 L 33 11 L 60 11 L 60 10 L 33 10 L 32 10 L 28 6 z M 26 16 L 22 20 L 3 20 L 3 21 L 23 21 L 26 16 z "
     id="path8" />
  <path
     style="fill-opacity:0.2;fill-rule:evenodd"
     d="M 26 16 L 20 19 L 4 19 L 4 20 L 22 20 L 26 16 z M 3 57 L 3 58 L 4 58 L 60 58 L 61 58 L 61 57 L 60 57 L 4 57 L 3 57 z "
     class="ColorScheme-Text"
     id="path10" />
  <path
     style="color:#d3dae3;fill:#ffffff;fill-opacity:1"
     d="m 34.00003,28 -4,0.605468 V 43.07422 l 4,-1.074219 v -5.589845 l 4,6.589845 4,-1.5 -5,-6.000001 5.001953,-6.498047 L 38.121124,28 34.00003,34.558594 Z m -8.14453,3.923828 c -0.0946,0 -0.18919,0.03684 -0.26172,0.109375 l -1.57227,1.572266 c -0.14506,0.145067 -0.11014,0.352307 0,0.52539 l 1.62696,2.554688 c -0.12055,0.250221 -0.22493,0.50791 -0.3125,0.771484 -0.004,0.01134 -0.01,0.02184 -0.0137,0.0332 l -2.95118,0.65625 C 22.17082,38.190991 22,38.312423 22,38.517578 v 0.982423 0.982422 c 0,0.205155 0.17082,0.32659 0.37109,0.371094 l 2.95118,0.65625 c 0.007,0.0194 0.0168,0.03731 0.0234,0.05664 0.0853,0.256042 0.18635,0.506527 0.30273,0.75 l -1.62695,2.552735 c -0.11015,0.173083 -0.14507,0.380323 0,0.52539 l 1.57226,1.572266 c 0.14507,0.145067 0.37837,0.145067 0.52344,0 l 2.550784,-1.625 c 0.250759,0.121949 0.509105,0.227636 0.773437,0.316406 0.01735,0.0061 0.03339,0.01554 0.05078,0.02148 l 0.654296,2.949218 c 0,0.205156 0.16594,0.371094 0.371094,0.371094 h 2.220703 c 0.205155,0 0.32659,-0.170824 0.371094,-0.371094 l 0.654297,-3.039062 c 0.300604,-0.113013 0.592418,-0.248149 0.873047,-0.404297 l 2.490234,1.78125 c 0.145068,0.145067 0.378371,0.145067 0.523438,0 l 1.572265,-1.572266 c 0.145068,-0.145067 0.110144,-0.352307 0,-0.52539 l -0.947265,-1.4375 -0.09961,0.03711 c -0.225251,0.08461 -0.478825,-0.0032 -0.603515,-0.208984 l -0.996092,-1.640621 c -0.829936,1.985195 -2.789933,3.380859 -5.076172,3.380859 -3.037565,0 -5.500005,-2.462434 -5.500005,-5.5 0,-2.330921 1.4528,-4.318351 3.500005,-5.119142 v -1.095703 l -0.0078,0.03516 c -0.02208,0.0075 -0.04245,0.01957 -0.06445,0.02734 -0.260825,0.08662 -0.515895,0.189688 -0.763672,0.308594 L 26.11715,32.033203 c -0.0725,-0.07253 -0.16712,-0.109375 -0.26172,-0.109375 z"
     class="ColorScheme-Text"
     id="path10-7" />
</svg>
